<svg xmlns="http://www.w3.org/2000/svg" xmlns:xlink="http://www.w3.org/1999/xlink" width="50" zoomAndPan="magnify" viewBox="0 0 37.5 37.499999" height="50" preserveAspectRatio="xMidYMid meet" version="1.0"><defs><clipPath id="a36df631f7"><path d="M 3 3 L 34 3 L 34 36.082031 L 3 36.082031 Z M 3 3 " clip-rule="nonzero"/></clipPath><clipPath id="f5669f3b98"><path d="M 0.703125 11 L 3 11 L 3 18 L 0.703125 18 Z M 0.703125 11 " clip-rule="nonzero"/></clipPath><clipPath id="24e2aca827"><path d="M 33 4 L 36.703125 4 L 36.703125 10 L 33 10 Z M 33 4 " clip-rule="nonzero"/></clipPath><clipPath id="b0a808af28"><path d="M 26 1.582031 L 30 1.582031 L 30 7 L 26 7 Z M 26 1.582031 " clip-rule="nonzero"/></clipPath></defs><g clip-path="url(#a36df631f7)"><path fill="#ffffff" d="M 12.886719 36.085938 L 12.886719 20.949219 C 12.015625 21.953125 11.199219 22.792969 10.425781 23.484375 C 9.644531 24.164062 9.050781 24.730469 8.25 25.054688 C 7.417969 25.378906 6.261719 25.691406 5.566406 25.394531 C 4.867188 25.074219 4.421875 24.476562 4.117188 23.199219 C 3.8125 21.902344 3.753906 19.359375 3.722656 17.742188 C 3.675781 16.109375 3.363281 14.378906 3.890625 13.578125 C 4.417969 12.777344 6.269531 12.628906 6.851562 13.011719 C 7.414062 13.402344 7.191406 14.675781 7.300781 15.882812 C 7.398438 17.097656 7.453125 18.511719 7.46875 20.214844 C 8.078125 19.582031 8.714844 18.957031 9.421875 18.304688 C 10.125 17.648438 10.734375 16.730469 11.65625 16.335938 C 12.5625 15.941406 13.707031 15.8125 14.839844 15.941406 C 15.96875 16.066406 17.191406 17.042969 18.355469 17.066406 C 19.515625 17.0625 20.683594 16.320312 21.710938 15.996094 C 22.710938 15.675781 23.324219 16.421875 24.390625 15.152344 C 25.464844 13.859375 27.054688 10.207031 28.078125 8.34375 C 29.078125 6.46875 29.578125 4.6875 30.421875 4.011719 C 31.265625 3.347656 32.738281 3.726562 33.105469 4.351562 C 33.449219 4.953125 33.554688 5.484375 32.546875 7.667969 C 31.519531 9.867188 28.449219 15.214844 27.070312 17.40625 C 25.6875 19.5625 24.796875 20.628906 24.335938 20.613281 L 24.335938 36.085938 C 20.523438 36.085938 16.703125 36.085938 12.886719 36.085938 Z M 12.886719 36.085938 " fill-opacity="1" fill-rule="evenodd"/></g><path fill="#ffffff" d="M 19.027344 5.691406 C 21.496094 5.691406 23.496094 7.707031 23.496094 10.195312 C 23.496094 12.679688 21.496094 14.699219 19.027344 14.699219 C 16.5625 14.699219 14.5625 12.679688 14.5625 10.195312 C 14.5625 7.707031 16.5625 5.691406 19.027344 5.691406 " fill-opacity="1" fill-rule="evenodd"/><path fill="#ffffff" d="M 1.320312 14.195312 L 8.636719 14.195312 L 8.636719 14.984375 L 1.320312 14.984375 Z M 1.320312 14.195312 " fill-opacity="1" fill-rule="evenodd"/><path fill="#ffffff" d="M 8.9375 11.945312 C 8.433594 11.945312 8.023438 12.355469 8.023438 12.863281 L 8.023438 16.203125 C 8.023438 16.710938 8.433594 17.125 8.9375 17.125 L 9.347656 17.125 C 9.851562 17.125 10.257812 16.710938 10.257812 16.203125 L 10.257812 12.863281 C 10.257812 12.355469 9.851562 11.945312 9.347656 11.945312 Z M 8.9375 11.945312 " fill-opacity="1" fill-rule="evenodd"/><g clip-path="url(#f5669f3b98)"><path fill="#ffffff" d="M 1.621094 11.945312 C 1.117188 11.945312 0.707031 12.355469 0.707031 12.863281 L 0.707031 16.203125 C 0.707031 16.710938 1.117188 17.125 1.621094 17.125 L 2.027344 17.125 C 2.53125 17.125 2.941406 16.710938 2.941406 16.203125 L 2.941406 12.863281 C 2.941406 12.355469 2.53125 11.945312 2.027344 11.945312 Z M 1.621094 11.945312 " fill-opacity="1" fill-rule="evenodd"/></g><path fill="#ffffff" d="M 27.769531 3.730469 L 27.457031 4.453125 L 34.175781 7.371094 L 34.488281 6.644531 Z M 27.769531 3.730469 " fill-opacity="1" fill-rule="evenodd"/><g clip-path="url(#24e2aca827)"><path fill="#ffffff" d="M 35.644531 4.695312 C 35.183594 4.5 34.644531 4.710938 34.445312 5.179688 C 34.011719 6.203125 33.574219 7.222656 33.136719 8.242188 C 32.9375 8.710938 33.152344 9.253906 33.613281 9.453125 C 33.738281 9.507812 33.863281 9.5625 33.988281 9.613281 C 34.453125 9.816406 34.988281 9.597656 35.1875 9.132812 C 35.625 8.113281 36.0625 7.089844 36.5 6.070312 C 36.699219 5.605469 36.484375 5.0625 36.019531 4.859375 C 35.898438 4.804688 35.773438 4.753906 35.644531 4.695312 Z M 35.644531 4.695312 " fill-opacity="1" fill-rule="evenodd"/></g><g clip-path="url(#b0a808af28)"><path fill="#ffffff" d="M 28.925781 1.785156 C 28.460938 1.582031 27.925781 1.796875 27.722656 2.261719 C 27.289062 3.285156 26.851562 4.304688 26.414062 5.328125 C 26.214844 5.792969 26.429688 6.335938 26.894531 6.539062 C 27.015625 6.589844 27.140625 6.644531 27.269531 6.699219 C 27.730469 6.898438 28.269531 6.683594 28.464844 6.21875 C 28.902344 5.195312 29.339844 4.171875 29.777344 3.15625 C 29.976562 2.6875 29.761719 2.144531 29.300781 1.945312 C 29.175781 1.890625 29.050781 1.835938 28.925781 1.785156 Z M 28.925781 1.785156 " fill-opacity="1" fill-rule="evenodd"/></g></svg>