<svg xmlns="http://www.w3.org/2000/svg" xmlns:xlink="http://www.w3.org/1999/xlink" width="50" zoomAndPan="magnify" viewBox="0 0 37.5 37.499999" height="50" preserveAspectRatio="xMidYMid meet" version="1.0"><defs><clipPath id="5c1bc0c5c6"><path d="M 2 1 L 37 1 L 37 37 L 2 37 Z M 2 1 " clip-rule="nonzero"/></clipPath><clipPath id="0265b135c7"><path d="M -3.570312 8.101562 L 25.488281 -4.054688 L 39.675781 29.847656 L 10.617188 42.003906 Z M -3.570312 8.101562 " clip-rule="nonzero"/></clipPath><clipPath id="19436296ee"><path d="M -3.570312 8.101562 L 25.488281 -4.054688 L 39.675781 29.847656 L 10.617188 42.003906 Z M -3.570312 8.101562 " clip-rule="nonzero"/></clipPath><clipPath id="2137962879"><path d="M -3.570312 8.101562 L 25.488281 -4.054688 L 39.675781 29.847656 L 10.617188 42.003906 Z M -3.570312 8.101562 " clip-rule="nonzero"/></clipPath><clipPath id="535f3596e0"><path d="M 9.304688 1.03125 L 30 1.03125 L 30 21.28125 L 9.304688 21.28125 Z M 9.304688 1.03125 " clip-rule="nonzero"/></clipPath><clipPath id="0b58d378a0"><path d="M 25 11 L 36.304688 11 L 36.304688 21.28125 L 25 21.28125 Z M 25 11 " clip-rule="nonzero"/></clipPath></defs><g clip-path="url(#5c1bc0c5c6)"><g clip-path="url(#0265b135c7)"><g clip-path="url(#19436296ee)"><g clip-path="url(#2137962879)"><path fill="#ffffff" d="M 12.796875 1.4375 C 12.289062 2.636719 11.550781 3.574219 10.988281 4.617188 C 10.359375 5.792969 10.015625 7.058594 9.824219 8.363281 C 9.570312 10.066406 9.855469 11.773438 10.136719 13.453125 C 10.453125 15.324219 10.976562 17.15625 11.8125 18.871094 C 12.347656 19.960938 12.898438 21.070312 13.722656 21.949219 C 14.617188 22.886719 15.730469 23.582031 16.796875 24.320312 C 18.652344 25.609375 20.71875 25.96875 22.871094 26.101562 C 24.816406 26.226562 26.71875 26.050781 28.617188 25.691406 C 30.726562 25.292969 32.625 24.414062 34.378906 23.207031 C 34.828125 22.902344 35.261719 22.578125 35.695312 22.261719 C 35.917969 22.105469 36.175781 22.082031 36.386719 22.257812 C 36.554688 22.394531 36.609375 22.59375 36.507812 22.835938 C 35.785156 24.597656 35.195312 26.421875 34.238281 28.066406 C 32.699219 30.738281 30.710938 32.96875 28.007812 34.488281 C 26.347656 35.421875 24.605469 36.097656 22.761719 36.53125 C 22 36.71875 21.195312 36.570312 20.410156 36.605469 C 18.058594 36.699219 15.851562 36.046875 13.636719 35.3125 C 10.644531 34.324219 8.296875 32.453125 6.320312 30.023438 C 4.972656 28.363281 4.105469 26.4375 3.347656 24.457031 C 2 20.941406 1.996094 17.34375 2.726562 13.757812 C 3.332031 10.753906 4.609375 8.019531 6.617188 5.707031 C 7.960938 4.175781 9.542969 2.910156 11.402344 2.011719 C 11.839844 1.808594 12.222656 1.496094 12.796875 1.4375 Z M 12.796875 1.4375 " fill-opacity="1" fill-rule="nonzero"/></g></g></g></g><g clip-path="url(#535f3596e0)"><path fill="#ffffff" d="M 19.804688 6.421875 C 19.871094 6.988281 20.027344 7.527344 20.277344 8.042969 C 20.527344 8.554688 20.859375 9.011719 21.269531 9.414062 C 21.679688 9.816406 22.148438 10.140625 22.671875 10.386719 C 23.195312 10.632812 23.746094 10.785156 24.320312 10.847656 C 26.144531 11.027344 27.972656 11.109375 29.808594 11.09375 C 27.972656 11.078125 26.144531 11.160156 24.320312 11.339844 C 23.746094 11.398438 23.195312 11.554688 22.671875 11.800781 C 22.148438 12.046875 21.679688 12.371094 21.269531 12.773438 C 20.859375 13.175781 20.527344 13.632812 20.277344 14.144531 C 20.027344 14.65625 19.871094 15.195312 19.804688 15.761719 C 19.625 17.550781 19.542969 19.339844 19.554688 21.136719 C 19.570312 19.339844 19.488281 17.550781 19.304688 15.761719 C 19.242188 15.195312 19.085938 14.65625 18.835938 14.144531 C 18.585938 13.632812 18.253906 13.175781 17.84375 12.773438 C 17.433594 12.371094 16.964844 12.046875 16.441406 11.800781 C 15.917969 11.554688 15.367188 11.398438 14.789062 11.335938 C 12.96875 11.160156 11.140625 11.078125 9.304688 11.09375 C 11.140625 11.109375 12.96875 11.027344 14.789062 10.847656 C 15.367188 10.785156 15.917969 10.632812 16.441406 10.386719 C 16.964844 10.140625 17.433594 9.816406 17.84375 9.414062 C 18.253906 9.011719 18.585938 8.554688 18.835938 8.042969 C 19.085938 7.527344 19.242188 6.988281 19.304688 6.421875 C 19.488281 4.636719 19.570312 2.84375 19.554688 1.050781 C 19.542969 2.84375 19.625 4.636719 19.804688 6.421875 Z M 19.804688 6.421875 " fill-opacity="1" fill-rule="nonzero"/></g><g clip-path="url(#0b58d378a0)"><path fill="#ffffff" d="M 31.25 13.8125 C 31.28125 14.097656 31.363281 14.371094 31.488281 14.632812 C 31.617188 14.890625 31.785156 15.121094 31.992188 15.324219 C 32.199219 15.527344 32.433594 15.691406 32.699219 15.816406 C 32.964844 15.941406 33.242188 16.019531 33.535156 16.050781 C 34.457031 16.140625 35.382812 16.183594 36.3125 16.175781 C 35.382812 16.167969 34.457031 16.210938 33.535156 16.300781 C 33.242188 16.332031 32.964844 16.410156 32.699219 16.53125 C 32.433594 16.65625 32.199219 16.820312 31.992188 17.023438 C 31.785156 17.226562 31.617188 17.460938 31.488281 17.71875 C 31.363281 17.980469 31.28125 18.25 31.25 18.539062 C 31.160156 19.441406 31.117188 20.347656 31.125 21.257812 C 31.132812 20.347656 31.089844 19.441406 30.996094 18.539062 C 30.964844 18.25 30.886719 17.980469 30.757812 17.71875 C 30.632812 17.460938 30.464844 17.226562 30.257812 17.023438 C 30.050781 16.820312 29.8125 16.65625 29.546875 16.53125 C 29.28125 16.410156 29.003906 16.332031 28.710938 16.300781 C 27.789062 16.210938 26.863281 16.167969 25.9375 16.175781 C 26.863281 16.183594 27.789062 16.140625 28.710938 16.050781 C 29.003906 16.019531 29.28125 15.941406 29.546875 15.816406 C 29.8125 15.691406 30.050781 15.527344 30.257812 15.324219 C 30.464844 15.121094 30.632812 14.890625 30.757812 14.632812 C 30.886719 14.371094 30.964844 14.097656 30.996094 13.8125 C 31.089844 12.90625 31.132812 12 31.125 11.09375 C 31.117188 12 31.160156 12.90625 31.25 13.8125 Z M 31.25 13.8125 " fill-opacity="1" fill-rule="nonzero"/></g><path fill="#ffffff" d="M 27.351562 3.78125 C 27.390625 4.144531 27.542969 4.449219 27.804688 4.707031 C 28.066406 4.964844 28.378906 5.109375 28.746094 5.148438 C 29.308594 5.203125 29.875 5.230469 30.441406 5.226562 C 29.875 5.222656 29.308594 5.246094 28.746094 5.300781 C 28.378906 5.339844 28.066406 5.488281 27.804688 5.746094 C 27.542969 6 27.390625 6.308594 27.351562 6.667969 C 27.296875 7.21875 27.269531 7.773438 27.273438 8.328125 C 27.277344 7.773438 27.253906 7.21875 27.195312 6.667969 C 27.15625 6.308594 27.007812 6 26.746094 5.746094 C 26.484375 5.488281 26.167969 5.339844 25.800781 5.300781 C 25.238281 5.246094 24.671875 5.222656 24.105469 5.226562 C 24.671875 5.230469 25.238281 5.203125 25.800781 5.148438 C 26.167969 5.109375 26.484375 4.960938 26.746094 4.707031 C 27.003906 4.449219 27.15625 4.144531 27.195312 3.78125 C 27.253906 3.230469 27.277344 2.675781 27.273438 2.121094 C 27.269531 2.675781 27.296875 3.230469 27.351562 3.78125 Z M 27.351562 3.78125 " fill-opacity="1" fill-rule="nonzero"/></svg>